<svg xmlns="http://www.w3.org/2000/svg" version="1.1" xmlns:xlink="http://www.w3.org/1999/xlink" width="200" height="200"><svg xmlns="http://www.w3.org/2000/svg" version="1.1" xmlns:xlink="http://www.w3.org/1999/xlink" viewBox="0 0 200 200"><rect width="200" height="200" fill="url('#gradient')"></rect><defs><linearGradient id="SvgjsLinearGradient1001" gradientTransform="rotate(24 0.5 0.5)"><stop offset="0%" stop-color="#ffe536"></stop><stop offset="100%" stop-color="#ee54f5"></stop></linearGradient></defs><g><g fill="#1c020e" transform="matrix(1.5996011632737848,0,0,1.5996011632737848,4.283997542530258,111.75270323094462)" stroke="#e352a2" stroke-width="0"><path d="M5.75 0L1.07 0L1.07-14.22L5.65-14.22Q7.54-14.22 9.04-13.36Q10.55-12.51 11.39-10.95Q12.24-9.39 12.25-7.46L12.25-7.46L12.25-6.81Q12.25-4.85 11.42-3.31Q10.60-1.76 9.10-0.88Q7.60-0.01 5.75 0L5.75 0ZM5.65-11.57L4.50-11.57L4.50-2.64L5.69-2.64Q7.17-2.64 7.96-3.69Q8.75-4.74 8.75-6.81L8.75-6.81L8.75-7.42Q8.75-9.48 7.96-10.53Q7.17-11.57 5.65-11.57L5.65-11.57ZM21.34-3.78L21.34-3.78Q21.34-4.53 20.81-4.95Q20.27-5.37 18.94-5.82Q17.60-6.27 16.75-6.69L16.75-6.69Q13.98-8.05 13.98-10.42L13.98-10.42Q13.98-11.60 14.67-12.50Q15.36-13.41 16.62-13.91Q17.88-14.41 19.45-14.41L19.45-14.41Q20.99-14.41 22.20-13.87Q23.42-13.32 24.09-12.31Q24.77-11.30 24.77-10L24.77-10L21.35-10Q21.35-10.87 20.82-11.35Q20.28-11.83 19.38-11.83L19.38-11.83Q18.46-11.83 17.92-11.42Q17.39-11.02 17.39-10.39L17.39-10.39Q17.39-9.84 17.98-9.40Q18.56-8.96 20.04-8.48Q21.51-8.01 22.46-7.46L22.46-7.46Q24.77-6.13 24.77-3.80L24.77-3.80Q24.77-1.93 23.36-0.87Q21.95 0.20 19.50 0.20L19.50 0.20Q17.77 0.20 16.37-0.42Q14.97-1.04 14.26-2.12Q13.55-3.20 13.55-4.61L13.55-4.61L16.99-4.61Q16.99-3.47 17.58-2.92Q18.17-2.38 19.50-2.38L19.50-2.38Q20.35-2.38 20.84-2.75Q21.34-3.12 21.34-3.78ZM35.43 0L34.60-2.66L29.90-2.66L29.08 0L25.42 0L30.63-14.22L33.86-14.22L39.11 0L35.43 0ZM32.25-10.23L30.72-5.30L33.78-5.30L32.25-10.23ZM50.74-4.82L48.55-4.82L48.55 0L45.13 0L45.13-14.22L50.80-14.22Q52.43-14.22 53.69-13.62Q54.94-13.02 55.63-11.91Q56.32-10.80 56.32-9.39L56.32-9.39Q56.32-7.31 54.83-6.07Q53.34-4.82 50.74-4.82L50.74-4.82ZM48.55-11.57L48.55-7.47L50.80-7.47Q51.80-7.47 52.32-7.97Q52.84-8.47 52.84-9.38L52.84-9.38Q52.84-10.37 52.30-10.97Q51.77-11.56 50.84-11.57L50.84-11.57L48.55-11.57ZM64.44-10.64L64.38-7.59L63.30-7.67Q61.75-7.67 61.31-6.69L61.31-6.69L61.31 0L58.02 0L58.02-10.57L61.10-10.57L61.21-9.21Q62.04-10.76 63.53-10.76L63.53-10.76Q64.05-10.76 64.44-10.64L64.44-10.64ZM74.52 0L71.23 0Q71.05-0.32 70.92-0.95L70.92-0.95Q70.01 0.20 68.38 0.20L68.38 0.20Q66.88 0.20 65.84-0.71Q64.79-1.61 64.79-2.98L64.79-2.98Q64.79-4.70 66.06-5.58Q67.33-6.46 69.76-6.46L69.76-6.46L70.77-6.46L70.77-7.01Q70.77-8.47 69.51-8.47L69.51-8.47Q68.34-8.47 68.34-7.31L68.34-7.31L65.05-7.31Q65.05-8.85 66.35-9.80Q67.66-10.76 69.68-10.76Q71.70-10.76 72.87-9.78Q74.04-8.79 74.07-7.07L74.07-7.07L74.07-2.39Q74.09-0.94 74.52-0.17L74.52-0.17L74.52 0ZM69.17-2.15L69.17-2.15Q69.79-2.15 70.19-2.41Q70.60-2.68 70.77-3.01L70.77-3.01L70.77-4.70L69.81-4.70Q68.10-4.70 68.10-3.15L68.10-3.15Q68.10-2.71 68.40-2.43Q68.70-2.15 69.17-2.15ZM80.36-2.34L80.36-2.34Q81.05-2.34 81.44-2.72Q81.82-3.10 81.81-3.77L81.81-3.77L84.89-3.77Q84.89-2.03 83.65-0.92Q82.40 0.20 80.44 0.20L80.44 0.20Q78.13 0.20 76.81-1.25Q75.48-2.70 75.48-5.25L75.48-5.25L75.48-5.39Q75.48-6.99 76.07-8.22Q76.66-9.44 77.77-10.10Q78.89-10.76 80.41-10.76L80.41-10.76Q82.47-10.76 83.68-9.62Q84.89-8.48 84.89-6.52L84.89-6.52L81.81-6.52Q81.81-7.34 81.41-7.78Q81.01-8.22 80.33-8.22L80.33-8.22Q79.05-8.22 78.84-6.59L78.84-6.59Q78.77-6.07 78.77-5.17L78.77-5.17Q78.77-3.57 79.15-2.96Q79.53-2.34 80.36-2.34ZM86.83-13.19L90.12-13.19L90.12-10.57L91.86-10.57L91.86-8.28L90.12-8.28L90.12-3.45Q90.12-2.85 90.33-2.62Q90.55-2.38 91.18-2.38L91.18-2.38Q91.67-2.38 92.00-2.44L92.00-2.44L92.00-0.09Q91.11 0.20 90.15 0.20L90.15 0.20Q88.45 0.20 87.64-0.61Q86.83-1.41 86.83-3.04L86.83-3.04L86.83-8.28L85.48-8.28L85.48-10.57L86.83-10.57L86.83-13.19ZM96.62-10.57L96.62 0L93.32 0L93.32-10.57L96.62-10.57ZM93.13-13.29L93.13-13.29Q93.13-13.99 93.63-14.44Q94.14-14.89 94.95-14.89Q95.76-14.89 96.27-14.44Q96.78-13.99 96.78-13.29Q96.78-12.59 96.27-12.14Q95.76-11.69 94.95-11.69Q94.14-11.69 93.63-12.14Q93.13-12.59 93.13-13.29ZM103.12-2.34L103.12-2.34Q103.81-2.34 104.19-2.72Q104.57-3.10 104.56-3.77L104.56-3.77L107.65-3.77Q107.65-2.03 106.40-0.92Q105.16 0.20 103.19 0.20L103.19 0.20Q100.89 0.20 99.56-1.25Q98.23-2.70 98.23-5.25L98.23-5.25L98.23-5.39Q98.23-6.99 98.82-8.22Q99.41-9.44 100.53-10.10Q101.64-10.76 103.16-10.76L103.16-10.76Q105.22-10.76 106.44-9.62Q107.65-8.48 107.65-6.52L107.65-6.52L104.56-6.52Q104.56-7.34 104.16-7.78Q103.76-8.22 103.09-8.22L103.09-8.22Q101.81-8.22 101.59-6.59L101.59-6.59Q101.52-6.07 101.52-5.17L101.52-5.17Q101.52-3.57 101.90-2.96Q102.29-2.34 103.12-2.34ZM114.15 0.20L114.15 0.20Q111.72 0.20 110.21-1.25Q108.71-2.71 108.71-5.03L108.71-5.03L108.71-5.30Q108.71-6.92 109.31-8.16Q109.91-9.40 111.06-10.08Q112.22-10.76 113.80-10.76L113.80-10.76Q116.03-10.76 117.31-9.38Q118.60-8.00 118.60-5.53L118.60-5.53L118.60-4.25L112.06-4.25Q112.24-3.36 112.83-2.85Q113.43-2.34 114.38-2.34L114.38-2.34Q115.94-2.34 116.82-3.44L116.82-3.44L118.32-1.66Q117.71-0.81 116.58-0.31Q115.45 0.20 114.15 0.20ZM113.78-8.22L113.78-8.22Q112.33-8.22 112.06-6.31L112.06-6.31L115.38-6.31L115.38-6.56Q115.40-7.35 114.98-7.79Q114.56-8.22 113.78-8.22Z"></path></g></g></svg><style>@media (prefers-color-scheme: light) { :root { filter: none; } }
@media (prefers-color-scheme: dark) { :root { filter: none; } }
</style></svg>